<?xml version="1.0" encoding="UTF-8"?>
<svg id="Layer_1" xmlns="http://www.w3.org/2000/svg" version="1.1" viewBox="0 0 186.92 121.77">
  <!-- Generator: Adobe Illustrator 30.2.1, SVG Export Plug-In . SVG Version: 2.1.1 Build 1)  -->
  <path d="M79.23,94.73l-43.4.04-12.46,26.75-23.36-.21L57.17,0l58.18,121.47-23.2.15-12.92-26.89ZM69.18,73.27l-11.79-24.75-11.89,25.42c8.61-.26,15.83.68,23.68-.67Z" style="fill: #725a38;"/>
  <path d="M139.16,83.97l-28.89-.38.21-20.75,39.33-.23c9.6-.06,16.32-8.16,16.29-17.12s-6.9-16.71-16.34-16.78l-40.52-.3c-3.17-7.11-5.57-14.22-9.48-20.84,5.76-1.45,10.65-.15,16.08-.14l31.95.06c19.2.04,34.65,12.29,38.33,30.37,3.74,18.37-5.78,36.44-24.08,43.6l24.13,39.99-24.65.31-22.34-37.79Z" style="fill: #131313;"/>
</svg>